<svg xmlns="http://www.w3.org/2000/svg" width="24" height="24" viewBox="0 0 24 24">
  <path fill="#9BA4BC" d="M14.3355071,13.3970651 C15.7055821,11.5696209 15.5322892,8.98813336 13.8994949,7.35533906 C12.0923762,5.54822031 9.1624578,5.54822031 7.35533906,7.35533906 C5.54822031,9.1624578 5.54822031,12.0923762 7.35533906,13.8994949 C8.98813336,15.5322892 11.5696209,15.7055821 13.3970651,14.3355071 L13.9334029,13.9334029 L14.3355071,13.3970651 Z M5.9411255,15.3137085 C3.35295817,12.7255412 3.35295817,8.52929283 5.9411255,5.9411255 C8.52929283,3.35295817 12.7255412,3.35295817 15.3137085,5.9411255 C17.6745764,8.3019934 17.8819138,12.0008936 15.9357207,14.5967803 L20,18.6610596 L18.6610596,20 L14.5967803,15.9357207 C12.0008936,17.8819138 8.3019934,17.6745764 5.9411255,15.3137085 Z"/>
</svg>
