<svg xmlns="http://www.w3.org/2000/svg" width="174" height="52" viewBox="0 0 174 52">
  <g fill="none" fill-rule="evenodd">
    <path fill="#000" d="M0,4.82496722 C0,2.16021141 2.14502724,0 4.79258619,0 L169.207414,0 C171.854286,0 174,2.15995929 174,4.82496722 L174,47.1750328 C174,49.8397886 171.854973,52 169.207414,52 L4.79258619,52 C2.14571392,52 0,49.8400407 0,47.1750328 L0,4.82496722 Z"/>
    <path fill="#FFF" d="M67.2417978 39.9350348L70.1861677 39.9350348 63.7407193 22.0832457 60.7592354 22.0832457 54.313787 39.9350348 57.1591865 39.9350348 58.8045697 35.1968261 65.6087859 35.1968261 67.2417978 39.9350348zM62.1077074 25.3245269L62.3180195 25.3245269 64.9036217 32.8710212 59.5097339 32.8710212 62.1077074 25.3245269zM77.9932135 26.2400033C76.1622608 26.2400033 74.5787341 27.1554796 73.7622281 28.6895211L73.5642873 28.6895211 73.5642873 26.4626867 71.0034278 26.4626867 71.0034278 44.3021045 73.6632577 44.3021045 73.6632577 37.8937699 73.8735699 37.8937699C74.5787341 39.3164697 76.1004043 40.1577182 78.0179561 40.1577182 81.4200642 40.1577182 83.5850421 37.4731457 83.5850421 33.1926751 83.5850421 28.9122045 81.4200642 26.2400033 77.9932135 26.2400033L77.9932135 26.2400033zM77.2385641 37.7700569C75.0117297 37.7700569 73.6137725 36.013332 73.6137725 33.2050464 73.6137725 30.3843895 75.0117297 28.6276646 77.2509354 28.6276646 79.5025124 28.6276646 80.8509843 30.3472756 80.8509843 33.1926751 80.8509843 36.0504459 79.5025124 37.7700569 77.2385641 37.7700569L77.2385641 37.7700569zM91.7879696 26.2400033C89.9570168 26.2400033 88.3734902 27.1554796 87.5569842 28.6895211L87.3590434 28.6895211 87.3590434 26.4626867 84.7981838 26.4626867 84.7981838 44.3021045 87.4580138 44.3021045 87.4580138 37.8937699 87.6683259 37.8937699C88.3734902 39.3164697 89.8951603 40.1577182 91.8127122 40.1577182 95.2148203 40.1577182 97.3797982 37.4731457 97.3797982 33.1926751 97.3797982 28.9122045 95.2148203 26.2400033 91.7879696 26.2400033L91.7879696 26.2400033zM91.0333201 37.7700569C88.8064857 37.7700569 87.4085286 36.013332 87.4085286 33.2050464 87.4085286 30.3843895 88.8064857 28.6276646 91.0456914 28.6276646 93.2972684 28.6276646 94.6457404 30.3472756 94.6457404 33.1926751 94.6457404 36.0504459 93.2972684 37.7700569 91.0333201 37.7700569L91.0333201 37.7700569zM103.010249 35.1349695C103.20819 38.3267655 105.86802 40.3680304 109.826836 40.3680304 114.057822 40.3680304 116.70528 38.2277951 116.70528 34.8133157 116.70528 32.1287431 115.195982 30.6441868 111.534076 29.790567L109.567039 29.3080862C107.241234 28.7637489 106.301015 28.0338421 106.301015 26.759598 106.301015 25.1513287 107.760829 24.099768 109.950549 24.099768 112.028928 24.099768 113.463999 25.1265861 113.723797 26.7719693L116.42074 26.7719693C116.259914 23.7657428 113.612455 21.6502501 109.987663 21.6502501 106.090703 21.6502501 103.49273 23.7657428 103.49273 26.9451675 103.49273 29.5678836 104.964915 31.1266676 108.193825 31.8813171L110.494887 32.4380257C112.857805 32.9947343 113.896995 33.8112402 113.896995 35.1720835 113.896995 36.7556101 112.263983 37.9061412 110.037149 37.9061412 107.649487 37.9061412 105.991733 36.8298379 105.756678 35.1349695L103.010249 35.1349695zM118.994725 23.1966629L118.994725 26.5245432 116.780262 26.5245432 116.780262 28.7637489 118.994725 28.7637489 118.994725 36.3720998C118.994725 38.9700732 120.169999 40.0092626 123.12674 40.0092626 123.646335 40.0092626 124.128816 39.9474061 124.54944 39.8731783L124.54944 37.6587152C124.178301 37.6958291 123.967989 37.7205717 123.559736 37.7205717 122.236007 37.7205717 121.654555 37.1020066 121.654555 35.6916781L121.654555 28.7637489 124.673153 28.7637489 124.673153 26.5245432 121.654555 26.5245432 121.654555 23.1966629 118.994725 23.1966629zM131.267811 37.8319134C128.954378 37.8319134 127.655391 36.137045 127.655391 33.1926751 127.655391 30.2730478 128.954378 28.5658081 131.267811 28.5658081 133.568874 28.5658081 134.880232 30.2730478 134.880232 33.1926751 134.880232 36.1246737 133.568874 37.8319134 131.267811 37.8319134L131.267811 37.8319134zM131.267811 40.1948321C135.201885 40.1948321 137.614289 37.5597448 137.614289 33.1926751 137.614289 28.850348 135.189514 26.2028894 131.267811 26.2028894 127.333737 26.2028894 124.908962 28.850348 124.908962 33.1926751 124.908962 37.5597448 127.321366 40.1948321 131.267811 40.1948321L131.267811 40.1948321zM138.827431 39.9350348L141.487261 39.9350348 141.487261 31.9802875C141.487261 30.0874782 142.909961 28.8132341 144.914112 28.8132341 145.359479 28.8132341 146.175985 28.8998332 146.386297 28.974061L146.386297 26.351345C146.101757 26.2771172 145.594533 26.2400033 145.211023 26.2400033 143.454298 26.2400033 141.969742 27.2049648 141.586231 28.5286942L141.388291 28.5286942 141.388291 26.4626867 138.827431 26.4626867 138.827431 39.9350348zM152.374761 28.4668377C154.341798 28.4668377 155.628414 29.8400522 155.69027 31.9555449L148.886054 31.9555449C149.03451 29.8524235 150.407724 28.4668377 152.374761 28.4668377L152.374761 28.4668377zM155.677899 36.297872C155.183047 37.3494326 154.082001 37.9308838 152.473732 37.9308838 150.345868 37.9308838 148.972653 36.4339563 148.886054 34.0710376L148.886054 33.9225819 158.399585 33.9225819 158.399585 32.9947343C158.399585 28.7637489 156.135637 26.2028894 152.387132 26.2028894 148.589143 26.2028894 146.176739 28.9369471 146.176739 33.2421603 146.176739 37.5473735 148.539657 40.1948321 152.399504 40.1948321 155.479958 40.1948321 157.632565 38.7102759 158.238758 36.297872L155.677899 36.297872zM56.8064276 8.14880003L56.8064276 16.649652 59.8756888 16.649652C62.4088602 16.649652 63.8757432 15.0885115 63.8757432 12.3727161 63.8757432 9.69815835 62.397078 8.14880003 59.8756888 8.14880003L56.8064276 8.14880003zM58.1260332 9.35058367L59.7284114 9.35058367C61.4898492 9.35058367 62.5325732 10.469892 62.5325732 12.3903894 62.5325732 14.3403422 61.5075225 15.4478683 59.7284114 15.4478683L58.1260332 15.4478683 58.1260332 9.35058367zM68.5191053 15.6481656C67.4174703 15.6481656 66.7989052 14.8410854 66.7989052 13.4390045 66.7989052 12.0487058 67.4174703 11.2357345 68.5191053 11.2357345 69.6148492 11.2357345 70.2393054 12.0487058 70.2393054 13.4390045 70.2393054 14.8351943 69.6148492 15.6481656 68.5191053 15.6481656L68.5191053 15.6481656zM68.5191053 16.773365C70.3924739 16.773365 71.5412377 15.5185615 71.5412377 13.4390045 71.5412377 11.3712297 70.3865828 10.1105351 68.5191053 10.1105351 66.6457367 10.1105351 65.4910818 11.3712297 65.4910818 13.4390045 65.4910818 15.5185615 66.6398456 16.773365 68.5191053 16.773365L68.5191053 16.773365zM81.4689131 10.2342481L80.2023274 10.2342481 79.0594548 15.1297491 78.9593061 15.1297491 77.6397006 10.2342481 76.4261347 10.2342481 75.1065291 15.1297491 75.0122716 15.1297491 73.8635078 10.2342481 72.5792488 10.2342481 74.3465777 16.649652 75.64851 16.649652 76.9681156 11.9249927 77.0682642 11.9249927 78.3937609 16.649652 79.7074753 16.649652 81.4689131 10.2342481zM83.0783606 16.649652L84.3449463 16.649652 84.3449463 12.8970236C84.3449463 11.8955373 84.9694026 11.2710811 85.9885622 11.2710811 86.9311376 11.2710811 87.3906431 11.7836064 87.3906431 12.8145483L87.3906431 16.649652 88.6572288 16.649652 88.6572288 12.4964291C88.6572288 10.9706352 87.8501486 10.1105351 86.4186122 10.1105351 85.4524724 10.1105351 84.7043032 10.5405851 84.3920751 11.2534078L84.2978176 11.2534078 84.2978176 10.2342481 83.0783606 10.2342481 83.0783606 16.649652zM90.796875 16.649652L92.0634607 16.649652 92.0634607 7.73053219 90.796875 7.73053219 90.796875 16.649652zM96.9719221 15.6481656C95.8702871 15.6481656 95.251722 14.8410854 95.251722 13.4390045 95.251722 12.0487058 95.8702871 11.2357345 96.9719221 11.2357345 98.067666 11.2357345 98.6921222 12.0487058 98.6921222 13.4390045 98.6921222 14.8351943 98.067666 15.6481656 96.9719221 15.6481656L96.9719221 15.6481656zM96.9719221 16.773365C98.8452907 16.773365 99.9940545 15.5185615 99.9940545 13.4390045 99.9940545 11.3712297 98.8393997 10.1105351 96.9719221 10.1105351 95.0985535 10.1105351 93.9438986 11.3712297 93.9438986 13.4390045 93.9438986 15.5185615 95.0926624 16.773365 96.9719221 16.773365L96.9719221 16.773365zM103.912812 15.6894033C103.223554 15.6894033 102.72281 15.3536108 102.72281 14.7762834 102.72281 14.2107381 103.123405 13.9102922 104.007069 13.8513812L105.574101 13.7512326 105.574101 14.2873224C105.574101 15.0826204 104.867169 15.6894033 103.912812 15.6894033L103.912812 15.6894033zM103.588801 16.7556917C104.431228 16.7556917 105.132269 16.3904437 105.51519 15.7483142L105.615339 15.7483142 105.615339 16.649652 106.834796 16.649652 106.834796 12.2666763C106.834796 10.9117242 105.927567 10.1105351 104.319297 10.1105351 102.864197 10.1105351 101.827364 10.8174666 101.69776 11.9191017L102.923108 11.9191017C103.064494 11.4654872 103.553455 11.206279 104.260386 11.206279 105.126378 11.206279 105.574101 11.5892003 105.574101 12.2666763L105.574101 12.8204394 103.836228 12.920588C102.310434 13.0148456 101.450334 13.6805394 101.450334 14.8351943 101.450334 16.0075225 102.351671 16.7556917 103.588801 16.7556917L103.588801 16.7556917zM111.283751 16.7556917C112.167416 16.7556917 112.915585 16.3374239 113.298506 15.6363834L113.398655 15.6363834 113.398655 16.649652 114.612221 16.649652 114.612221 7.73053219 113.345635 7.73053219 113.345635 11.2534078 113.251378 11.2534078C112.903803 10.5464762 112.161525 10.1282084 111.283751 10.1282084 109.6637 10.1282084 108.620976 11.4124674 108.620976 13.4390045 108.620976 15.4714327 109.651918 16.7556917 111.283751 16.7556917L111.283751 16.7556917zM111.643108 11.26519C112.703506 11.26519 113.3692 12.1076167 113.3692 13.4448956 113.3692 14.7880655 112.709397 15.6187101 111.643108 15.6187101 110.570929 15.6187101 109.928799 14.7998477 109.928799 13.4390045 109.928799 12.0899434 110.57682 11.26519 111.643108 11.26519L111.643108 11.26519zM123.12132 15.6481656C122.019685 15.6481656 121.40112 14.8410854 121.40112 13.4390045 121.40112 12.0487058 122.019685 11.2357345 123.12132 11.2357345 124.217064 11.2357345 124.84152 12.0487058 124.84152 13.4390045 124.84152 14.8351943 124.217064 15.6481656 123.12132 15.6481656L123.12132 15.6481656zM123.12132 16.773365C124.994689 16.773365 126.143453 15.5185615 126.143453 13.4390045 126.143453 11.3712297 124.988798 10.1105351 123.12132 10.1105351 121.247952 10.1105351 120.093297 11.3712297 120.093297 13.4390045 120.093297 15.5185615 121.242061 16.773365 123.12132 16.773365L123.12132 16.773365zM127.96498 16.649652L129.231565 16.649652 129.231565 12.8970236C129.231565 11.8955373 129.856022 11.2710811 130.875181 11.2710811 131.817757 11.2710811 132.277262 11.7836064 132.277262 12.8145483L132.277262 16.649652 133.543848 16.649652 133.543848 12.4964291C133.543848 10.9706352 132.736768 10.1105351 131.305231 10.1105351 130.339092 10.1105351 129.590922 10.5405851 129.278694 11.2534078L129.184437 11.2534078 129.184437 10.2342481 127.96498 10.2342481 127.96498 16.649652zM139.672944 8.67899869L139.672944 10.2637036 138.618438 10.2637036 138.618438 11.329992 139.672944 11.329992 139.672944 14.9530162C139.672944 16.1901465 140.232599 16.6849985 141.640571 16.6849985 141.887997 16.6849985 142.117749 16.6555431 142.318047 16.6201965L142.318047 15.5656903C142.141314 15.5833635 142.041165 15.5951457 141.846759 15.5951457 141.216412 15.5951457 140.93953 15.3005909 140.93953 14.6290059L140.93953 11.329992 142.376958 11.329992 142.376958 10.2637036 140.93953 10.2637036 140.93953 8.67899869 139.672944 8.67899869zM144.180811 16.649652L145.447397 16.649652 145.447397 12.9029147C145.447397 11.9308838 146.089527 11.2769722 147.126359 11.2769722 148.080717 11.2769722 148.557896 11.7953886 148.557896 12.8204394L148.557896 16.649652 149.824482 16.649652 149.824482 12.5082113C149.824482 10.9824173 148.999728 10.1164262 147.55641 10.1164262 146.59027 10.1164262 145.847992 10.5464762 145.535763 11.26519L145.435615 11.26519 145.435615 7.73053219 144.180811 7.73053219 144.180811 16.649652zM154.544428 11.1886057C155.481112 11.1886057 156.093786 11.8425174 156.123242 12.8498949L152.883139 12.8498949C152.953832 11.8484085 153.607744 11.1886057 154.544428 11.1886057L154.544428 11.1886057zM156.117351 14.9176697C155.881707 15.4184128 155.357399 15.6952944 154.591557 15.6952944 153.578288 15.6952944 152.924376 14.9824717 152.883139 13.8572723L152.883139 13.7865792 157.413392 13.7865792 157.413392 13.344747C157.413392 11.329992 156.335321 10.1105351 154.550319 10.1105351 152.741752 10.1105351 151.592989 11.4124674 151.592989 13.4625689 151.592989 15.5126704 152.718188 16.773365 154.55621 16.773365 156.023093 16.773365 157.048144 16.0664334 157.336808 14.9176697L156.117351 14.9176697z"/>
    <g fill="#FFF" transform="translate(15.684 8.084)">
      <path d="M23.3264962 18.1643154C23.2876698 13.8492358 26.8596936 11.7499354 27.023032 11.6522002 25.0000455 8.70273677 21.8644834 8.29974609 20.7626185 8.26761394 18.1291213 7.99047417 15.5746155 9.84342802 14.2330984 9.84342802 12.8648044 9.84342802 10.7989751 8.29439073 8.572485 8.33991127 5.7073685 8.38409297 3.02701184 10.0429151 1.55696608 12.6188423-1.4768442 17.8711096.785794537 25.5895192 3.69241507 29.8349793 5.14639475 31.9155358 6.84538206 34.2357447 9.06919445 34.1540755 11.2448086 34.065712 12.0574842 32.7670377 14.6829484 32.7670377 17.2843136 32.7670377 18.0474521 34.1540755 20.3154462 34.1005219 22.6503822 34.065712 24.120428 32.0132711 25.5235318 29.9139708 27.2037753 27.5335142 27.8785504 25.1838509 27.9053272 25.0633553 27.8517736 25.0459504 23.3720167 23.3362524 23.3264962 18.1643154M19.0422098 5.47479477C20.2123555 4.0114432 21.0129815 2.02058888 20.7907342.000280095736 19.0971022.0752551071 16.9790582 1.17176465 15.7593754 2.60298406 14.6802708 3.86417086 13.7163063 5.93133903 13.9653305 7.87533397 15.8678214 8.01725095 17.8211882 6.91538606 19.0422098 5.47479477"/>
    </g>
  </g>
</svg>
