<svg xmlns="http://www.w3.org/2000/svg" xmlns:xlink="http://www.w3.org/1999/xlink" width="174" height="52" viewBox="0 0 174 52">
  <defs>
    <path id="play-store-button-a" d="M28.6365042,14.9536007 C30.4240176,15.970284 30.4244268,17.6184446 28.6365042,18.6353903 L3.26001428,33.0691862 C1.47250084,34.0858991 0.023434886,33.2442727 0.023434886,31.1882731 L0.023434886,2.40119051 C0.023434886,0.345677959 1.47209162,-0.496692243 3.26001428,0.52022387 L28.6365042,14.9536007 Z"/>
    <linearGradient id="play-store-button-b" x1="0%" x2="69.306%" y1="58.476%" y2="39.083%">
      <stop offset="0%" stop-color="#01E2FF"/>
      <stop offset="100%" stop-color="#01C4FF"/>
    </linearGradient>
    <linearGradient id="play-store-button-d" x1="20.281%" x2="83.82%" y1="20.102%" y2="83.621%">
      <stop offset="0%" stop-color="#28D781"/>
      <stop offset="100%" stop-color="#02F076"/>
    </linearGradient>
    <linearGradient id="play-store-button-e" x1="74.488%" x2="10.108%" y1="17.43%" y2="91.184%">
      <stop offset="0%" stop-color="#F2414E"/>
      <stop offset="100%" stop-color="#E02554"/>
    </linearGradient>
  </defs>
  <g fill="none" fill-rule="evenodd">
    <path fill="#000" d="M0,5.92075317 C0,2.65081149 2.62041028,0 5.85151491,0 L168.148485,0 C171.380188,0 174,2.65017748 174,5.92075317 L174,46.0792468 C174,49.3491885 171.37959,52 168.148485,52 L5.85151491,52 C2.61981246,52 0,49.3498225 0,46.0792468 L0,5.92075317 Z"/>
    <g fill="#FFF" transform="translate(53.89 8.745)">
      <path d="M39.2363636 8.50909091C36.8866431 8.50909091 34.9818182 6.60426603 34.9818182 4.25454545 34.9818182 1.90482488 36.8866431 0 39.2363636 0 41.5860842 0 43.4909091 1.90482488 43.4909091 4.25454545 43.4909091 6.60426603 41.5860842 8.50909091 39.2363636 8.50909091zM39.2363636 7.20909091C40.868114 7.20909091 42.1909091 5.88629585 42.1909091 4.25454545 42.1909091 2.62279506 40.868114 1.3 39.2363636 1.3 37.6046132 1.3 36.2818182 2.62279506 36.2818182 4.25454545 36.2818182 5.88629585 37.6046132 7.20909091 39.2363636 7.20909091zM10.4 4.72727273L10.4 7.32727273 13.8272727 7.32727273 13.8272727 8.27272727 10.4 8.27272727 9.1 8.27272727 9.1.472727273 9.1.354545455 13.8272727.354545455 13.8272727 1.3 10.4 1.3 10.4 3.78181818 13.4727273 3.78181818 13.4727273 4.72727273 10.4 4.72727273zM18.4363636 1.3L18.4363636 8.27272727 17.1363636 8.27272727 17.1363636 1.3 15.1272727 1.3 15.1272727.354545455 20.4454545.354545455 20.4454545 1.3 18.4363636 1.3zM30.0181818 1.3L30.0181818 8.27272727 28.7181818 8.27272727 28.7181818 1.3 26.7090909 1.3 26.7090909.354545455 32.0272727.354545455 32.0272727 1.3 30.0181818 1.3z"/>
      <rect width="1.3" height="7.918" x="24.227" y=".355"/>
      <path d="M45.8545455,0.354545455 L46.0909091,0.354545455 L49.6363636,6.14833703 L49.6363636,0.354545455 L50.9363636,0.354545455 L50.9363636,8.27272727 L49.6363636,8.27272727 L45.8545455,2.09268293 L45.8545455,8.27272727 L44.5545455,8.27272727 L44.5545455,0.354545455 L45.8545455,0.354545455 Z"/>
      <g transform="translate(0 .118)">
        <polygon points="4.229 3.802 7.788 3.802 7.753 4.928 4.229 4.928"/>
        <path d="M7.087858,1.15138976 L6.273379,1.96498803 C5.765364,1.44613754 5.0438312,1.16169846 4.21131039,1.16169846 C2.54721387,1.16169846 1.1981971,2.5092565 1.1981971,4.17155357 C1.1981971,5.83385065 2.54721387,7.18140868 4.21131039,7.18140868 C5.87540692,7.18140868 7.05689085,6.22040848 7.05441296,4.17155357 C7.05722746,4.04493568 7.05427572,3.92168412 7.04581054,3.80192224 L8.08551965,3.80192224 C8.0856376,3.81585141 8.08569669,3.8298089 8.08569669,3.84379454 C8.4767902,6.71242518 6.52097847,8.36421518 4.1760693,8.34310714 C1.86969214,8.33980367 0,6.47543899 0,4.17155357 C0,1.86766815 1.86968991,0 4.1760693,0 C5.38162497,0 6.39507083,0.420734505 7.087858,1.15138976 Z"/>
      </g>
    </g>
    <g fill="#FFF" transform="translate(53.3 22.69)">
      <g transform="translate(73.745 .59)">
        <path d="M0.590909091,4.15366755e-07 L7.29097833,0 C7.29097833,0 11.1480235,0.656232244 11.1480232,5.08533984 C11.1480229,9.51444744 7.29097833,10.1706797 7.29097833,10.1706797 L0.590909091,10.1706801 L0.590909091,4.15366755e-07 Z M1.89090909,2.4601806 L1.89090909,7.91818182 L6.43924344,7.91818182 C6.43924344,7.91818182 8.50909091,7.91818182 8.50909091,5.18918121 C8.50909091,2.4601806 6.43924344,2.4601806 6.43924344,2.4601806 L1.89090909,2.4601806 Z"/>
        <rect width="2.364" height="16.545"/>
      </g>
      <rect width="2.364" height="16.545" x="86.273" y=".591"/>
      <path d="M97.3969477 15.9533794C96.7459189 16.490526 95.7050872 16.9960701 94.0611966 17.0987393 90.2951324 17.3339491 90.2931702 13.8973275 90.2931702 13.6655806 90.2931702 13.4338337 90.1074147 10.6312278 93.1032199 10.1857377 95.2245448 9.87028695 96.7103062 10.3958886 97.3969477 10.729615L97.3969477 10.2434805C97.2285643 9.59964631 96.7060291 8.41664595 95.1394903 8.41664595 92.987299 8.41664595 92.5120223 9.58022905 92.5120223 9.58022905L90.5432101 8.41664595C90.5432101 8.41664595 91.6449218 6.14545454 94.9506764 6.14545455 99.0610615 6.14545455 99.7608293 8.98056308 99.7608293 9.93542369 99.7608293 9.9400715 99.7607472 9.94468926 99.7605841 9.94927714L99.7605841 17.1310547 97.3969477 17.1310547 97.3969477 15.9533794zM97.2281 12.4094371C97.2281 12.4094371 92.6745223 11.182089 92.5162348 13.7401944 92.3579473 16.2982998 96.8847496 15.0699707 97.2892107 13.2565607 97.2892106 12.679905 97.2281 12.4094371 97.2281 12.4094371zM104.195787 16.5086315L99.9818182 6.5 102.345455 6.5 105.377605 13.7016853 108.385653 6.55724432 110.74929 6.55724432 104.354545 21.7454545 101.990909 21.7454545 104.195787 16.5086315zM68.4539046 10.3675775L60.9784361 13.4570267C60.9784361 13.4570267 61.4612294 15.1657962 63.7087827 15.1772491 65.4687007 15.1862171 66.4621845 13.6173324 66.4621845 13.6173324L68.3588112 14.9017842C68.3588112 14.9017842 66.8283374 17.3770269 63.6938435 17.3770269 59.8419828 17.3770269 58.1454545 14.0088881 58.1454545 11.8215076 58.1454545 9.71402301 59.4920616 6.14545455 63.454817 6.14545455 67.4175724 6.14545455 68.4539046 10.3675775 68.4539046 10.3675775zM65.6096469 9.49238171C65.6096469 9.49238171 64.6691292 8.06140731 63.2267076 8.32531061 60.1755282 8.88354983 60.5594932 11.5536388 60.5594932 11.5536388L65.6096469 9.49238171z"/>
      <rect width="2.501" height="16.511" x="54.6" y=".591"/>
      <path d="M50.5983513 6.50428561L52.9098988 6.52425488 52.9098988 16.9419974C52.9098988 19.603702 51.3251988 22.4133867 47.5944313 22.4133867 43.8636639 22.4133867 42.6587633 19.1078796 42.6587633 19.1078796L44.7817039 18.2150551C44.7817039 18.2150551 45.4291871 20.2522368 47.7047513 20.2522341 50.2961207 20.252231 50.5986386 17.8946588 50.5986386 17.0876549L50.5986386 15.9570886C50.5986386 15.9570886 49.7020018 17.3604229 47.4749181 17.360426 45.0603048 17.3604293 42.1909091 15.2916445 42.1909091 11.7647765 42.1909091 8.2379086 44.8928139 6.22057969 47.5028572 6.14719883 49.5934778 6.08842143 50.5983513 7.53464752 50.5983513 7.53464752L50.5983513 6.50428561zM47.6722873 15.2434166C49.3579625 15.2434166 50.7244723 13.6992912 50.7244723 11.7945159 50.7244723 9.88974056 49.3579625 8.34561509 47.6722873 8.34561509 45.9866121 8.34561509 44.6201024 9.88974056 44.6201024 11.7945159 44.6201024 13.6992912 45.9866121 15.2434166 47.6722873 15.2434166zM35.5263168 17.3727273C32.4189878 17.3727273 29.9 14.8594167 29.9 11.7590909 29.9 8.65876515 32.4189878 6.14545455 35.5263168 6.14545455 38.6336458 6.14545455 41.1526336 8.65876515 41.1526336 11.7590909 41.1526336 14.8594167 38.6336458 17.3727273 35.5263168 17.3727273zM35.4895435 15.1713012C37.2361467 15.1713012 38.6520484 13.6436026 38.6520484 11.7590909 38.6520484 9.87457918 37.2361467 8.34688057 35.4895435 8.34688057 33.7429403 8.34688057 32.3270386 9.87457918 32.3270386 11.7590909 32.3270386 13.6436026 33.7429403 15.1713012 35.4895435 15.1713012zM23.3535895 17.3727273C20.2462606 17.3727273 17.7272727 14.8594167 17.7272727 11.7590909 17.7272727 8.65876515 20.2462606 6.14545455 23.3535895 6.14545455 26.4609185 6.14545455 28.9799064 8.65876515 28.9799064 11.7590909 28.9799064 14.8594167 26.4609185 17.3727273 23.3535895 17.3727273zM23.3168162 15.1713012C25.0634194 15.1713012 26.4793211 13.6436026 26.4793211 11.7590909 26.4793211 9.87457918 25.0634194 8.34688057 23.3168162 8.34688057 21.570213 8.34688057 20.1543114 9.87457918 20.1543114 11.7590909 20.1543114 13.6436026 21.570213 15.1713012 23.3168162 15.1713012z"/>
      <polygon points="8.826 7.925 16.254 7.925 16.18 10.273 8.826 10.273"/>
      <path d="M14.7920515,2.40008006 L13.0922692,4.09603139 C12.032064,3.01448388 10.5262564,2.42156863 8.78882169,2.42156863 C5.3159246,2.42156863 2.50058525,5.23056284 2.50058525,8.6956328 C2.50058525,12.1607028 5.3159246,14.969697 8.78882169,14.969697 C12.2617188,14.969697 14.7274244,12.9664853 14.7222531,8.6956328 C14.7281269,8.43169691 14.7219667,8.17477816 14.7043003,7.92513369 L16.874128,7.92513369 C16.8743741,7.95416913 16.8744974,7.98326362 16.8744974,8.01241679 C17.6906926,13.9920976 13.6089985,17.4352655 8.71527507,17.3912656 C3.9019662,17.3843795 0,13.4980982 0,8.6956328 C0,3.89316741 3.90196156,0 8.71527507,0 C11.2312173,0 13.3462348,0.877024039 14.7920515,2.40008006 Z"/>
    </g>
    <g transform="translate(12.882 9.1)">
      <mask id="play-store-button-c" fill="#fff">
        <use xlink:href="#play-store-button-a"/>
      </mask>
      <use fill="#F8E71C" xlink:href="#play-store-button-a"/>
      <polygon fill="url(#play-store-button-b)" points="0 .107 16.52 16.526 -.213 33.595" mask="url(#play-store-button-c)"/>
      <polygon fill="url(#play-store-button-d)" points="-3.397 -3.274 16.518 16.531 22.439 10.882" mask="url(#play-store-button-c)"/>
      <polygon fill="url(#play-store-button-e)" points="16.521 16.527 25.586 25.664 -1.494 34.801" mask="url(#play-store-button-c)"/>
    </g>
  </g>
</svg>
