<?xml version="1.0" standalone="no"?>
<!DOCTYPE svg PUBLIC "-//W3C//DTD SVG 20010904//EN"
 "http://www.w3.org/TR/2001/REC-SVG-20010904/DTD/svg10.dtd">
<svg version="1.0" xmlns="http://www.w3.org/2000/svg"
 width="512.000000pt" height="512.000000pt" viewBox="0 0 512.000000 512.000000"
 preserveAspectRatio="xMidYMid meet">

<g transform="translate(0.000000,512.000000) scale(0.100000,-0.100000)"
fill="#000000" stroke="none">
<path d="M1180 4668 c-25 -14 -58 -44 -75 -67 l-30 -43 0 -1997 0 -1997 25
-37 c14 -21 43 -50 64 -65 35 -24 49 -27 116 -27 67 0 81 3 116 27 21 15 50
44 64 65 l25 37 0 1996 0 1997 -27 39 c-44 62 -90 88 -167 92 -55 3 -74 -1
-111 -20z"/>
<path d="M2510 4261 c-74 -24 -119 -63 -145 -123 -13 -33 -15 -210 -15 -1578
0 -1368 2 -1545 15 -1578 64 -152 273 -172 370 -34 l30 44 3 1546 c2 1079 0
1558 -8 1584 -28 97 -158 169 -250 139z"/>
<path d="M3790 4261 c-74 -24 -119 -63 -145 -123 -13 -33 -15 -210 -15 -1578
0 -1368 2 -1545 15 -1578 64 -152 273 -172 370 -34 l30 44 3 1546 c2 1079 0
1558 -8 1584 -28 97 -158 169 -250 139z"/>
<path d="M3150 3621 c-74 -24 -119 -63 -145 -123 -13 -33 -15 -148 -15 -938 0
-790 2 -905 15 -938 64 -152 273 -172 370 -34 l30 44 3 906 c2 626 0 918 -8
944 -28 97 -158 169 -250 139z"/>
<path d="M540 3388 c-25 -14 -58 -44 -75 -67 l-30 -43 0 -717 0 -717 25 -37
c14 -21 43 -50 64 -65 35 -24 49 -27 116 -27 67 0 81 3 116 27 21 15 50 44 64
65 l25 37 0 716 0 717 -27 39 c-44 62 -90 88 -167 92 -55 3 -74 -1 -111 -20z"/>
<path d="M1840 3184 c-45 -20 -87 -59 -111 -106 -18 -35 -19 -65 -19 -518 0
-453 1 -483 19 -518 84 -163 306 -161 382 3 17 37 19 74 19 518 0 451 -1 480
-19 515 -53 102 -172 149 -271 106z"/>
<path d="M4430 2981 c-74 -24 -119 -63 -145 -123 -12 -31 -15 -85 -15 -298 0
-213 3 -267 15 -298 64 -152 273 -172 370 -34 l30 44 3 266 c4 286 0 320 -45
372 -48 57 -151 91 -213 71z"/>
</g>
</svg>
