<?xml version="1.0" standalone="no"?>
<!DOCTYPE svg PUBLIC "-//W3C//DTD SVG 20010904//EN"
 "http://www.w3.org/TR/2001/REC-SVG-20010904/DTD/svg10.dtd">
<svg version="1.0" xmlns="http://www.w3.org/2000/svg"
 width="512.000000pt" height="512.000000pt" viewBox="0 0 512.000000 512.000000"
 preserveAspectRatio="xMidYMid meet">

<g transform="translate(0.000000,512.000000) scale(0.100000,-0.100000)"
fill="#000000" stroke="none">
<path d="M955 5073 c-32 -9 -65 -34 -81 -64 -10 -21 -14 -69 -14 -194 l0 -165
-122 0 c-104 0 -128 -3 -155 -20 -62 -37 -68 -56 -72 -242 l-3 -168 -124 0
-123 0 -35 -31 c-47 -41 -52 -74 -32 -228 9 -71 16 -135 16 -143 0 -12 -17
-16 -76 -20 -67 -5 -79 -8 -105 -35 l-30 -29 255 -1791 c140 -984 260 -1801
265 -1815 16 -43 66 -76 123 -83 29 -3 913 -5 1963 -3 2149 3 1953 -5 1993 80
16 33 77 445 272 1815 138 975 249 1781 245 1792 -3 11 -15 31 -26 45 -19 24
-26 26 -100 26 l-79 0 5 38 c18 122 32 266 27 285 -9 35 -33 67 -63 83 -20 10
-63 14 -149 14 l-120 0 0 161 c0 181 -9 214 -65 249 -28 17 -49 20 -154 20
l-121 0 0 164 c0 153 -1 165 -23 197 -12 19 -38 42 -57 51 -33 17 -130 18
-1625 17 -875 -1 -1599 -4 -1610 -6z m3143 -295 l3 -128 -1536 0 -1535 0 0
130 0 130 1533 -2 1532 -3 3 -127z m342 -428 l0 -130 -1875 0 -1875 0 0 130 0
130 1875 0 1875 0 0 -130z m330 -307 c0 -5 -7 -55 -15 -113 -8 -58 -15 -111
-15 -117 0 -10 -443 -13 -2178 -13 l-2179 0 -11 108 c-7 59 -12 115 -12 125 0
16 112 17 2205 17 1213 0 2205 -3 2205 -7z m163 -420 c2 -6 -469 -3336 -483
-3410 -1 -8 -3770 -2 -3774 5 -5 8 -486 3374 -486 3400 0 9 544 12 2369 12
1304 0 2372 -3 2374 -7z"/>
<path d="M2310 3359 c-705 -71 -1298 -500 -1478 -1069 -45 -142 -56 -219 -55
-380 2 -367 149 -681 448 -961 536 -500 1454 -623 2155 -288 208 99 355 204
505 360 254 265 378 560 378 899 0 211 -41 380 -140 572 -301 585 -1050 944
-1813 867z m390 -170 c560 -51 1056 -354 1273 -776 86 -168 120 -310 120 -493
0 -176 -34 -321 -111 -475 -81 -163 -227 -337 -382 -454 -817 -620 -2135 -379
-2548 465 -160 326 -141 705 52 1024 294 487 930 770 1596 709z"/>
<path d="M2262 3014 c-189 -30 -402 -108 -577 -214 -130 -79 -161 -129 -112
-184 40 -46 72 -43 162 14 219 140 436 211 701 229 100 7 117 10 139 31 33 31
34 88 2 118 -21 20 -34 22 -123 21 -54 -1 -141 -7 -192 -15z"/>
<path d="M2299 2694 c-199 -36 -468 -158 -524 -236 -22 -33 -19 -75 10 -103
34 -35 79 -33 135 6 66 44 186 103 260 127 96 31 151 42 266 51 89 7 108 11
129 31 33 31 34 88 2 118 -21 19 -34 22 -113 21 -49 0 -123 -7 -165 -15z"/>
<path d="M2351 2379 c-121 -23 -277 -93 -347 -153 -29 -25 -37 -39 -36 -63 1
-46 17 -70 56 -83 39 -12 41 -12 136 46 78 47 196 83 301 93 108 10 139 31
139 91 0 61 -30 80 -126 79 -43 -1 -99 -5 -123 -10z"/>
<path d="M2502 2059 c-88 -16 -142 -69 -142 -138 0 -133 233 -192 347 -87 27
25 36 42 40 77 4 38 1 50 -22 77 -51 60 -134 87 -223 71z"/>
<path d="M2910 1712 c-117 -68 -199 -94 -339 -108 -92 -9 -125 -32 -125 -89 0
-29 7 -43 29 -63 28 -23 34 -24 115 -19 163 12 353 81 448 162 51 45 58 90 17
130 -34 35 -69 31 -145 -13z"/>
<path d="M3178 1490 c-14 -4 -46 -21 -70 -38 -144 -98 -382 -172 -560 -172
-64 0 -102 -32 -102 -85 0 -29 7 -43 29 -63 28 -24 33 -25 125 -19 111 7 264
38 356 73 143 53 292 141 319 186 39 66 -22 140 -97 118z"/>
<path d="M3305 1189 c-213 -135 -446 -210 -701 -226 -128 -7 -158 -24 -158
-88 0 -59 37 -85 122 -85 155 1 395 50 557 115 149 60 345 175 359 210 15 39
6 83 -20 104 -40 32 -72 26 -159 -30z"/>
</g>
</svg>
