<?xml version="1.0" standalone="no"?>
<!DOCTYPE svg PUBLIC "-//W3C//DTD SVG 20010904//EN"
 "http://www.w3.org/TR/2001/REC-SVG-20010904/DTD/svg10.dtd">
<svg version="1.0" xmlns="http://www.w3.org/2000/svg"
 width="512.000000pt" height="512.000000pt" viewBox="0 0 512.000000 512.000000"
 preserveAspectRatio="xMidYMid meet">

<g transform="translate(0.000000,512.000000) scale(0.100000,-0.100000)"
fill="#000000" stroke="none">
<path d="M2330 5110 c-494 -48 -950 -230 -1350 -538 -195 -150 -448 -432 -594
-662 -63 -99 -186 -351 -230 -471 -49 -134 -102 -340 -128 -499 -31 -195 -31
-565 0 -760 26 -159 79 -365 128 -499 44 -120 167 -372 230 -471 132 -208 346
-456 514 -595 l70 -59 -67 -68 -67 -68 -374 0 -373 0 3 -93 3 -92 405 -3 404
-2 107 106 107 107 34 -20 c18 -11 65 -40 103 -63 94 -58 308 -160 426 -204
134 -49 339 -102 499 -128 195 -31 565 -31 760 0 276 45 498 116 745 237 269
132 460 269 681 489 220 221 357 412 489 681 88 179 132 296 180 476 63 240
78 371 78 649 0 278 -15 409 -78 649 -48 180 -92 297 -180 476 -132 269 -269
460 -489 681 -221 220 -412 357 -681 489 -246 121 -474 193 -740 235 -147 23
-475 34 -615 20z m521 -194 c415 -52 801 -209 1148 -469 123 -92 356 -325 448
-448 260 -347 417 -733 469 -1148 8 -63 14 -194 14 -291 0 -374 -76 -709 -235
-1035 -122 -250 -255 -435 -460 -640 -205 -205 -390 -338 -640 -460 -326 -159
-661 -235 -1035 -235 -361 0 -689 72 -1004 219 -111 52 -296 158 -296 170 0 3
43 49 95 101 l95 95 73 -73 72 -72 243 243 242 242 -72 73 -73 72 83 83 82 82
-65 65 -65 64 -83 -82 -82 -82 -73 72 -72 73 -240 -240 -240 -240 72 -72 73
-73 -112 -112 -112 -112 -48 39 c-87 69 -307 298 -380 396 -259 346 -417 733
-469 1148 -18 148 -18 434 0 582 52 415 209 801 469 1148 92 123 325 356 448
448 342 255 729 415 1134 468 138 18 455 18 596 1z m-1143 -3913 l-108 -108
-80 80 -80 80 107 107 108 108 80 -80 80 -80 -107 -107z"/>
<path d="M2350 4698 c-389 -36 -774 -190 -1105 -441 -103 -79 -303 -279 -382
-382 -207 -273 -344 -572 -407 -888 -24 -115 -46 -306 -46 -389 l0 -38 93 0
94 0 6 123 c24 466 229 919 572 1262 343 343 796 548 1263 572 l122 6 0 94 0
93 -57 -1 c-32 -1 -101 -6 -153 -11z"/>
<path d="M2415 4289 c-658 -51 -1241 -492 -1480 -1119 -59 -156 -96 -332 -109
-532 l-6 -78 95 0 95 0 0 60 c0 150 55 388 129 559 150 350 452 652 802 802
171 74 409 129 559 129 l60 0 0 95 c0 92 -1 95 -22 94 -13 -1 -68 -5 -123 -10z"/>
<path d="M2449 3879 c-568 -47 -1047 -460 -1178 -1015 -11 -51 -24 -127 -27
-170 -3 -44 -7 -91 -9 -106 l-4 -28 94 0 95 0 0 48 c0 115 56 335 116 454 108
216 306 414 522 522 119 60 339 116 455 116 l47 0 0 95 c0 52 -3 94 -7 94 -5
-1 -51 -5 -104 -10z"/>
<path d="M2370 3455 c-276 -62 -507 -244 -630 -498 -74 -154 -85 -203 -85
-397 0 -194 11 -243 85 -397 92 -190 233 -331 423 -423 154 -74 203 -85 397
-85 194 0 243 11 397 85 190 92 331 233 423 423 74 154 85 203 85 397 0 194
-11 243 -85 397 -60 123 -145 232 -246 313 -82 66 -243 149 -339 175 -85 24
-338 29 -425 10z m395 -196 c146 -45 267 -127 363 -246 63 -78 102 -151 133
-253 34 -107 34 -293 0 -400 -31 -102 -70 -175 -133 -253 -97 -120 -217 -201
-368 -248 -107 -34 -293 -34 -400 0 -151 47 -271 128 -368 248 -63 78 -102
151 -133 253 -34 107 -34 293 0 400 85 273 304 470 579 520 78 15 248 4 327
-21z"/>
<path d="M2460 2560 l0 -90 100 0 100 0 0 90 0 90 -100 0 -100 0 0 -90z"/>
<path d="M3700 2513 c0 -116 -56 -336 -116 -455 -108 -216 -306 -414 -522
-522 -119 -60 -339 -116 -454 -116 l-48 0 0 -95 0 -94 28 4 c15 2 62 6 106 9
281 20 586 164 802 380 216 216 360 521 380 802 3 44 7 91 9 107 l5 27 -95 0
-95 0 0 -47z"/>
<path d="M4110 2500 c0 -150 -55 -388 -129 -559 -150 -350 -452 -652 -802
-802 -171 -74 -409 -129 -559 -129 l-60 0 0 -95 0 -95 78 6 c463 31 836 197
1147 509 312 311 478 684 509 1148 l6 77 -95 0 -95 0 0 -60z"/>
<path d="M4517 2438 c-24 -467 -229 -920 -572 -1263 -343 -343 -796 -548
-1262 -572 l-123 -6 0 -94 0 -93 38 0 c83 0 274 22 389 46 412 82 782 282
1088 589 307 306 507 676 589 1088 24 115 46 306 46 390 l0 37 -93 0 -94 0 -6
-122z"/>
</g>
</svg>
